<svg width="114" height="49" viewBox="0 0 114 49" fill="none" xmlns="http://www.w3.org/2000/svg">
<path d="M8.732 0.511999C9.964 0.511999 10.944 0.698665 11.672 1.072C12.5493 1.52 13.2213 2.136 13.688 2.92C14.1733 3.704 14.416 4.58133 14.416 5.552C14.416 6.46667 14.1733 7.316 13.688 8.1C13.2027 8.86533 12.54 9.472 11.7 9.92C12.708 10.2747 13.5573 10.8907 14.248 11.768C14.9387 12.6453 15.284 13.6347 15.284 14.736C15.284 15.7067 15.032 16.6027 14.528 17.424C14.0427 18.2267 13.3893 18.8613 12.568 19.328C12.1573 19.552 11.7 19.72 11.196 19.832C10.692 19.944 10.02 20 9.18 20H0.556V0.511999H8.732ZM21.3666 0.511999H35.0866V1.548H22.4026V9.444H33.4346V10.48H22.4026V18.964H35.0866V20H21.3666V0.511999ZM108.445 45.872C108.445 45.1813 108.687 44.5933 109.173 44.108C109.677 43.604 110.283 43.352 110.993 43.352C111.702 43.352 112.299 43.604 112.785 44.108C113.289 44.5933 113.541 45.1813 113.541 45.872C113.541 46.5627 113.289 47.16 112.785 47.664C112.299 48.168 111.702 48.42 110.993 48.42C110.302 48.42 109.705 48.168 109.201 47.664C108.697 47.16 108.445 46.5627 108.445 45.872Z" fill="#FF3D33"/>
<path d="M0.892 48V28.512H9.04C10.4027 28.512 11.5787 28.764 12.568 29.268C13.7067 29.8467 14.612 30.6773 15.284 31.76C15.956 32.824 16.292 34 16.292 35.288C16.292 36.576 15.956 37.7613 15.284 38.844C14.6307 39.9267 13.7347 40.7573 12.596 41.336C11.6253 41.84 10.44 42.092 9.04 42.092H5.988V48H0.892ZM32.3146 29.156C33.4346 29.6787 34.3119 30.4533 34.9466 31.48C35.5999 32.5067 35.9266 33.6453 35.9266 34.896C35.9266 36.352 35.4786 37.6587 34.5826 38.816C33.7052 39.9547 32.5759 40.7107 31.1946 41.084L36.1506 48H34.9186L30.1306 41.28L29.2346 41.308H22.2066V48H21.1706V28.512H28.5906C29.4119 28.512 30.1119 28.568 30.6906 28.68C31.2879 28.7733 31.8292 28.932 32.3146 29.156ZM29.5146 40.272C30.4852 40.272 31.3812 40.0293 32.2026 39.544C33.0239 39.0587 33.6772 38.4053 34.1626 37.584C34.6479 36.7627 34.8906 35.8667 34.8906 34.896C34.8906 33.8133 34.6012 32.8333 34.0226 31.956C33.4626 31.0787 32.6786 30.4253 31.6706 29.996C30.9426 29.6973 29.9159 29.548 28.5906 29.548H22.2066V40.272H29.5146ZM48.8131 28.092C50.2691 28.092 51.6131 28.456 52.8451 29.184C54.0771 29.8933 55.0478 30.864 55.7571 32.096C56.4851 33.328 56.8491 34.672 56.8491 36.128V40.384C56.8491 41.84 56.4851 43.184 55.7571 44.416C55.0478 45.648 54.0771 46.628 52.8451 47.356C51.6131 48.0653 50.2691 48.42 48.8131 48.42C47.3571 48.42 46.0131 48.0653 44.7811 47.356C43.5491 46.628 42.5691 45.648 41.8411 44.416C41.1318 43.184 40.7771 41.84 40.7771 40.384V36.128C40.7771 34.672 41.1318 33.328 41.8411 32.096C42.5691 30.864 43.5491 29.8933 44.7811 29.184C46.0131 28.456 47.3571 28.092 48.8131 28.092ZM41.8131 40.384C41.8131 41.6533 42.1211 42.8293 42.7371 43.912C43.3718 44.976 44.2211 45.8253 45.2851 46.46C46.3678 47.076 47.5438 47.384 48.8131 47.384C50.0825 47.384 51.2491 47.076 52.3131 46.46C53.3958 45.8253 54.2451 44.976 54.8611 43.912C55.4958 42.8293 55.8131 41.6533 55.8131 40.384V36.128C55.8131 34.8587 55.4958 33.692 54.8611 32.628C54.2451 31.5453 53.3958 30.696 52.3131 30.08C51.2491 29.4453 50.0825 29.128 48.8131 29.128C47.5438 29.128 46.3678 29.4453 45.2851 30.08C44.2211 30.696 43.3718 31.5453 42.7371 32.628C42.1211 33.692 41.8131 34.8587 41.8131 36.128V40.384ZM63.0717 28.512H77.6037V29.548H64.1077V37.724H75.0277V38.76H64.1077V48H63.0717V28.512ZM96.5943 28.512V29.548H90.7703V46.964H96.5943V48H83.9663V46.964H89.7623V29.548H83.9663V28.512H96.5943Z" fill="white"/>
</svg>
