<svg width="40" height="20" viewBox="0 0 17 9" fill="none" xmlns="http://www.w3.org/2000/svg">
<path d="M4.028 0.648C4.556 0.648 4.976 0.727999 5.288 0.887999C5.664 1.08 5.952 1.344 6.152 1.68C6.36 2.016 6.464 2.392 6.464 2.808C6.464 3.2 6.36 3.564 6.152 3.9C5.944 4.228 5.66 4.488 5.3 4.68C5.732 4.832 6.096 5.096 6.392 5.472C6.688 5.848 6.836 6.272 6.836 6.744C6.836 7.16 6.728 7.544 6.512 7.896C6.304 8.24 6.024 8.512 5.672 8.712C5.496 8.808 5.3 8.88 5.084 8.928C4.868 8.976 4.58 9 4.22 9H0.524V0.648H4.028Z" fill="#FF3D33"/>
<path d="M9.55081 9V0.648H13.0428C13.6268 0.648 14.1308 0.756 14.5548 0.972C15.0428 1.22 15.4308 1.576 15.7188 2.04C16.0068 2.496 16.1508 3 16.1508 3.552C16.1508 4.104 16.0068 4.612 15.7188 5.076C15.4388 5.54 15.0548 5.896 14.5668 6.144C14.1508 6.36 13.6428 6.468 13.0428 6.468H11.7348V9H9.55081Z" fill="white"/>
</svg>
