<svg width="5026" height="5017" viewBox="0 0 5026 5017" fill="none" xmlns="http://www.w3.org/2000/svg">
<path d="M2135.82 242.16C2009.57 441.481 1901.64 801.31 2479.96 646.059C3058.27 490.808 3402.53 838.494 3305.6 1244.06C3274.6 1355.7 3055.42 1701.03 3180.96 1825.21C3314.03 1956.84 3617.38 1760.7 3540.17 1580.57C3473.71 1425.53 2897.96 1246.39 2805.72 1649.71C2713.49 2053.02 3022.21 2821.47 3254.68 2813.88C3433.06 2808.06 3454.38 2524.45 2901.95 2707.63C2211.41 2936.59 1318.32 4187.73 1238.83 3623.66C1178.28 3194 1562.33 3537.81 1889.65 3770.07C2111.78 3927.69 2934.81 4539.55 3639.67 3954.05" stroke="#FF3D33" stroke-width="10" stroke-linecap="round"/>
</svg>
