<svg width="512" height="512" viewBox="0 0 512 512" fill="none" xmlns="http://www.w3.org/2000/svg">
<path d="M511.266 197.258C509.502 191.826 504.808 187.869 499.158 187.049L340.436 163.983L269.452 20.1559C266.925 15.0349 261.711 11.7949 256.001 11.7949C250.292 11.7949 245.077 15.0349 242.55 20.1559L171.562 163.982L12.8429 187.049C7.19389 187.869 2.49789 191.826 0.73489 197.256C-1.03011 202.688 0.44189 208.649 4.52989 212.633L119.378 324.588L92.2699 482.67C91.3049 488.299 93.6189 493.985 98.2379 497.342C102.857 500.697 108.979 501.141 114.035 498.483L256 423.845L397.961 498.482C400.156 499.636 402.552 500.205 404.94 500.205C408.05 500.205 411.146 499.24 413.758 497.342C418.377 493.985 420.691 488.297 419.726 482.67L392.61 324.588L507.47 212.633C511.559 208.648 513.031 202.687 511.266 197.258Z" fill="#FED42D"/>
<path d="M511.266 197.258C509.502 191.826 504.808 187.869 499.158 187.049L340.436 163.983L269.452 20.1559C266.925 15.0349 261.711 11.7949 256.001 11.7949V423.846L397.962 498.483C400.157 499.637 402.553 500.206 404.941 500.206C408.051 500.206 411.147 499.241 413.759 497.343C418.378 493.986 420.692 488.298 419.727 482.671L392.61 324.588L507.47 212.633C511.559 208.648 513.031 202.687 511.266 197.258Z" fill="#FCBF29"/>
</svg>
