<svg width="1064" height="512" viewBox="0 0 1064 512" fill="none" xmlns="http://www.w3.org/2000/svg">
<path d="M511.266 197.258C509.502 191.826 504.808 187.869 499.158 187.049L340.436 163.983L269.452 20.1559C266.925 15.0349 261.711 11.7949 256.001 11.7949C250.292 11.7949 245.077 15.0349 242.55 20.1559L171.562 163.982L12.8429 187.049C7.19389 187.869 2.49789 191.826 0.73489 197.256C-1.03011 202.688 0.44189 208.649 4.52989 212.633L119.378 324.588L92.2699 482.67C91.3049 488.299 93.6189 493.985 98.2379 497.342C102.857 500.697 108.979 501.141 114.035 498.483L256 423.845L397.961 498.482C400.156 499.636 402.552 500.205 404.94 500.205C408.05 500.205 411.146 499.24 413.758 497.342C418.377 493.985 420.691 488.297 419.726 482.67L392.61 324.588L507.47 212.633C511.559 208.648 513.031 202.687 511.266 197.258Z" fill="#FED42D"/>
<path d="M511.266 197.258C509.502 191.826 504.808 187.869 499.158 187.049L340.436 163.983L269.452 20.1559C266.925 15.0349 261.711 11.7949 256.001 11.7949V423.846L397.962 498.483C400.157 499.637 402.553 500.206 404.941 500.206C408.051 500.206 411.147 499.241 413.759 497.343C418.378 493.986 420.692 488.298 419.727 482.671L392.61 324.588L507.47 212.633C511.559 208.648 513.031 202.687 511.266 197.258Z" fill="#FCBF29"/>
<path d="M1063.27 197.258C1061.5 191.826 1056.81 187.869 1051.16 187.049L892.436 163.983L821.452 20.1559C818.925 15.0349 813.711 11.7949 808.001 11.7949C802.292 11.7949 797.077 15.0349 794.55 20.1559L723.562 163.982L564.843 187.049C559.194 187.869 554.498 191.826 552.735 197.256C550.97 202.688 552.442 208.649 556.53 212.633L671.378 324.588L644.27 482.67C643.305 488.299 645.619 493.985 650.238 497.342C654.857 500.697 660.979 501.141 666.035 498.483L808 423.845L949.961 498.482C952.156 499.636 954.552 500.205 956.94 500.205C960.05 500.205 963.146 499.24 965.758 497.342C970.377 493.985 972.691 488.297 971.726 482.67L944.61 324.588L1059.47 212.633C1063.56 208.648 1065.03 202.687 1063.27 197.258Z" fill="#FED42D"/>
<path d="M1063.27 197.258C1061.5 191.826 1056.81 187.869 1051.16 187.049L892.436 163.983L821.452 20.1559C818.925 15.0349 813.711 11.7949 808.001 11.7949V423.846L949.962 498.483C952.157 499.637 954.553 500.206 956.941 500.206C960.051 500.206 963.147 499.241 965.759 497.343C970.378 493.986 972.692 488.298 971.727 482.671L944.61 324.588L1059.47 212.633C1063.56 208.648 1065.03 202.687 1063.27 197.258Z" fill="#FCBF29"/>
</svg>
